<svg width="128" height="128" viewBox="0 0 128 128" fill="none" xmlns="http://www.w3.org/2000/svg">
    <g filter="url(#filter0_i_403_217)">
        <g filter="url(#filter1_d_403_217)">
            <rect width="42" height="6" rx="3" transform="matrix(-1 0 0 1 63 29.4999)" fill="white"/>
            <rect width="42" height="6" rx="3" transform="matrix(-1 0 0 1 63 71.4999)" fill="white"/>
            <rect width="42" height="6" rx="3" transform="matrix(-1 0 0 1 63 50.4999)" fill="white"/>
            <rect width="42" height="6" rx="3" transform="matrix(-1 0 0 1 63 92.4999)" fill="white"/>
            <path d="M90.1221 87.8806L101.924 43.8367C102.174 42.9032 101.62 41.9436 100.686 41.6934L90.5439 38.9758C89.6104 38.7257 88.6508 39.2797 88.4006 40.2133L76.5991 84.2571C76.3179 85.3068 76.2849 86.4075 76.5027 87.4722L79.0288 99.8164C79.1444 100.381 79.8556 100.572 80.2383 100.14L88.598 90.7131C89.319 89.9 89.8408 88.9302 90.1221 87.8806Z"
                  fill="white"/>
            <path d="M105.094 32.0042L103.735 37.0753C103.485 38.0088 102.526 38.5628 101.592 38.3127L91.4498 35.5951C90.5162 35.345 89.9622 34.3854 90.2124 33.4518L91.5712 28.3807C92.0715 26.5136 93.9906 25.4055 95.8578 25.9058L102.619 27.7175C104.486 28.2178 105.594 30.137 105.094 32.0042Z"
                  fill="white"/>
        </g>
    </g>
    <defs>
        <filter id="filter0_i_403_217" x="0" y="0" width="128" height="128" filterUnits="userSpaceOnUse"
                color-interpolation-filters="sRGB">
            <feFlood flood-opacity="0" result="BackgroundImageFix"/>
            <feBlend mode="normal" in="SourceGraphic" in2="BackgroundImageFix" result="shape"/>
            <feColorMatrix in="SourceAlpha" type="matrix" values="0 0 0 0 0 0 0 0 0 0 0 0 0 0 0 0 0 0 127 0"
                           result="hardAlpha"/>
            <feOffset/>
            <feGaussianBlur stdDeviation="2"/>
            <feComposite in2="hardAlpha" operator="arithmetic" k2="-1" k3="1"/>
            <feColorMatrix type="matrix" values="0 0 0 0 0 0 0 0 0 0 0 0 0 0 0 0 0 0 0.25 0"/>
            <feBlend mode="normal" in2="shape" result="effect1_innerShadow_403_217"/>
        </filter>
        <filter id="filter1_d_403_217" x="16" y="22.7856" width="98" height="82.5909" filterUnits="userSpaceOnUse"
                color-interpolation-filters="sRGB">
            <feFlood flood-opacity="0" result="BackgroundImageFix"/>
            <feColorMatrix in="SourceAlpha" type="matrix" values="0 0 0 0 0 0 0 0 0 0 0 0 0 0 0 0 0 0 127 0"
                           result="hardAlpha"/>
            <feOffset dy="1"/>
            <feGaussianBlur stdDeviation="2"/>
            <feComposite in2="hardAlpha" operator="out"/>
            <feColorMatrix type="matrix" values="0 0 0 0 0 0 0 0 0 0 0 0 0 0 0 0 0 0 0.25 0"/>
            <feBlend mode="normal" in2="BackgroundImageFix" result="effect1_dropShadow_403_217"/>
            <feBlend mode="normal" in="SourceGraphic" in2="effect1_dropShadow_403_217" result="shape"/>
        </filter>
        <linearGradient id="paint0_linear_403_217" x1="64" y1="0" x2="64" y2="128" gradientUnits="userSpaceOnUse">
            <stop stop-color="#92EA3A"/>
            <stop offset="1" stop-color="#87C834"/>
        </linearGradient>
    </defs>
</svg>
